<svg width="112" height="36" viewBox="0 0 112 36" fill="none" xmlns="http://www.w3.org/2000/svg">
<g clip-path="url(#clip0_329_239)">
<path d="M39.3044 7.23438H24.4998V10.517H39.3044C39.9584 10.517 40.4924 11.059 40.4924 11.7228V13.5093C40.4924 14.173 39.9584 14.715 39.3044 14.715H28.4101C25.9713 14.715 23.9875 16.7283 23.9875 19.2034V22.6962C23.9875 25.1713 25.9713 27.1846 28.4101 27.1846H39.3044C41.7432 27.1846 43.7269 25.1713 43.7269 22.6962V11.7228C43.7269 9.24765 41.7432 7.23438 39.3044 7.23438ZM40.4924 22.699C40.4924 23.3627 39.9584 23.9047 39.3044 23.9047H28.4101C27.7561 23.9047 27.222 23.3655 27.222 22.699V19.2062C27.222 18.5425 27.7561 18.0004 28.4101 18.0004H39.3044C39.7186 18.0004 40.0483 17.9119 40.4924 17.6824V22.699Z" fill="#587ABC"/>
<path d="M107.58 7.23438H92.7757V10.517H107.58C108.234 10.517 108.768 11.059 108.768 11.7228V13.5093C108.768 14.173 108.237 14.715 107.58 14.715H96.686C94.2472 14.715 92.2634 16.7283 92.2634 19.2034V22.6962C92.2634 25.1713 94.2472 27.1846 96.686 27.1846H107.58C110.019 27.1846 112.003 25.1713 112.003 22.6962V11.7228C112.003 9.24765 110.019 7.23438 107.58 7.23438ZM108.766 22.699C108.766 23.3627 108.234 23.9047 107.578 23.9047H96.6833C96.0293 23.9047 95.4952 23.3655 95.4952 22.699V19.2062C95.4952 18.5425 96.0293 18.0004 96.6833 18.0004H107.578C107.992 18.0004 108.321 17.9119 108.766 17.6824V22.699Z" fill="#587ABC"/>
<path d="M51.6429 22.6986V9.91095C52.3814 10.4364 52.94 10.4862 53.6621 10.4862H65.8889L65.8834 7.17035H53.6594C52.5721 7.17035 51.6865 6.29923 51.6429 5.20409V0.5H48.4084V22.6986C48.4084 25.1737 50.3922 27.1869 52.831 27.1869H66.1913V23.9043H52.831C52.177 23.9043 51.6429 23.365 51.6429 22.6986Z" fill="#587ABC"/>
<path d="M85.1677 7.25586H74.2353C71.7992 7.25586 69.8154 9.27743 69.8154 11.7525V27.2337H73.0499V11.7525C73.0499 11.0888 73.5813 10.5468 74.238 10.5468H85.1704C85.8217 10.5468 86.3557 11.0695 86.3557 11.7359V14.7697H89.5902V11.7359C89.5902 9.26084 87.6065 7.25586 85.1677 7.25586Z" fill="#587ABC"/>
<path d="M15.325 7.23421H4.42256C1.98375 7.23421 0 9.24749 0 11.7198V35.5003H3.23449V29.2447C3.23449 28.0694 4.12554 27.1844 5.21551 27.1844H15.325C17.7638 27.1817 19.7448 25.1684 19.7448 22.696V11.7198C19.7448 9.24472 17.7611 7.23145 15.3223 7.23145L15.325 7.23421ZM16.5131 22.6988C16.5131 23.3625 15.979 23.9018 15.325 23.9018L5.21551 23.9046C4.50976 23.9046 3.77675 24.0235 3.23449 24.4908V11.7226C3.23449 11.0589 3.76858 10.5168 4.42256 10.5168H15.325C15.979 10.5168 16.5131 11.0561 16.5131 11.7226V22.6988Z" fill="#587ABC"/>
</g>
<defs>
<clipPath id="clip0_329_239">
<rect width="112" height="35" fill="white" transform="translate(0 0.5)"/>
</clipPath>
</defs>
</svg>
